<svg width="16.000000" height="6.000000" viewBox="0 0 16 6" fill="none" xmlns="http://www.w3.org/2000/svg" xmlns:xlink="http://www.w3.org/1999/xlink">
	<desc>
			Created with Pixso.
	</desc>
	<defs/>
	<path id="Vector 9" d="M11 3.5L0.5 3.5L0.5 2.5L11 2.5L11 3.5ZM10.98 2.51999L11 2.5C11.28 2.5 11.5 2.72 11.5 3C11.5 3.28 11.28 3.5 11 3.5L10.98 3.48001L10.98 2.51999ZM0.52002 3.48001L0.5 3.5C0.219971 3.5 0 3.28 0 3C0 2.72 0.219971 2.5 0.5 2.5L0.52002 2.51999L0.52002 3.48001Z" fill="#042A30" fill-opacity="1.000000" fill-rule="evenodd"/>
	<path id="Vector 10" d="M12.2116 5.27304L15.6427 3.21439C15.8046 3.11728 15.8046 2.88272 15.6427 2.78561L12.2116 0.726959C11.6784 0.407013 11 0.791107 11 1.41296L11 4.58704C11 5.20889 11.6784 5.59299 12.2116 5.27304Z" fill="#042A30" fill-opacity="1.000000" fill-rule="evenodd"/>
</svg>
