<svg width="16.000000" height="16.000000" viewBox="0 0 16 16" fill="none" xmlns="http://www.w3.org/2000/svg" xmlns:xlink="http://www.w3.org/1999/xlink">
	<desc>
			Created with Pixso.
	</desc>
	<defs/>
	<rect id="Icons / 16 / Expand" width="16.000000" height="16.000000" fill="#C4C4C4" fill-opacity="0"/>
	<path id="Vector" d="M16 10.5L16 15.5Q16 15.5492 15.9904 15.5975Q15.9808 15.6458 15.9619 15.6913Q15.9431 15.7368 15.9157 15.7778Q15.8884 15.8187 15.8536 15.8536Q15.8187 15.8884 15.7778 15.9157Q15.7368 15.9431 15.6913 15.9619Q15.6458 15.9808 15.5975 15.9904Q15.5492 16 15.5 16L10.5 16L10.5 15L15.5 15L15.5 15.5L15 15.5L15 10.5L16 10.5ZM15.1465 15.8536L10.459 11.1661L11.166 10.4589L15.8535 15.1464L15.1465 15.8536ZM15.02 10.52L15 10.5C15 10.22 15.22 10 15.5 10C15.78 10 16 10.22 16 10.5L15.98 10.52L15.02 10.52ZM10.52 15.98L10.5 16C10.22 16 10 15.78 10 15.5C10 15.22 10.22 15 10.5 15L10.52 15.02L10.52 15.98ZM10.4873 11.1661L10.459 11.1661C10.261 10.9681 10.261 10.6569 10.459 10.4589C10.657 10.261 10.968 10.261 11.166 10.4589L11.166 10.4872L10.4873 11.1661Z" fill="#000000" fill-opacity="1.000000" fill-rule="evenodd"/>
	<path id="Vector" d="M1 10.5L1 15.5L0.5 15.5L0.5 15L5.5 15L5.5 16L0.5 16Q0.450754 16 0.402455 15.9904Q0.354155 15.9808 0.308658 15.9619Q0.263161 15.9431 0.222215 15.9157Q0.181269 15.8884 0.146447 15.8536Q0.111625 15.8187 0.0842652 15.7778Q0.0569057 15.7368 0.0380602 15.6913Q0.0192147 15.6458 0.00960736 15.5975Q0 15.5492 0 15.5L0 10.5L1 10.5ZM0.146484 15.1464L4.83398 10.4589L5.54102 11.1661L0.853516 15.8536L0.146484 15.1464ZM0.0200195 10.52L0 10.5C0 10.22 0.219971 10 0.5 10C0.780029 10 1 10.22 1 10.5L0.97998 10.52L0.0200195 10.52ZM5.47998 15.02L5.5 15C5.78003 15 6 15.22 6 15.5C6 15.78 5.78003 16 5.5 16L5.47998 15.98L5.47998 15.02ZM4.83398 10.4872L4.83398 10.4589C5.03198 10.261 5.34302 10.261 5.54102 10.4589C5.73901 10.6569 5.73901 10.9681 5.54102 11.1661L5.5127 11.1661L4.83398 10.4872Z" fill="#000000" fill-opacity="1.000000" fill-rule="evenodd"/>
	<path id="Vector" d="M15 5.5L15 0.5L15.5 0.5L15.5 1L10.5 1L10.5 0L15.5 0Q15.5492 0 15.5975 0.00960736Q15.6458 0.0192147 15.6913 0.0380602Q15.7368 0.0569057 15.7778 0.0842652Q15.8187 0.111625 15.8536 0.146447Q15.8884 0.181269 15.9157 0.222215Q15.9431 0.263161 15.9619 0.308658Q15.9808 0.354155 15.9904 0.402455Q16 0.450754 16 0.5L16 5.5L15 5.5ZM15.8535 0.853577L11.166 5.54108L10.459 4.83392L15.1465 0.146423L15.8535 0.853577ZM15.98 5.47998L16 5.5C16 5.78003 15.78 6 15.5 6C15.22 6 15 5.78003 15 5.5L15.02 5.47998L15.98 5.47998ZM10.52 0.97998L10.5 1C10.22 1 10 0.780029 10 0.5C10 0.219971 10.22 0 10.5 0L10.52 0.0200195L10.52 0.97998ZM11.166 5.51276L11.166 5.54108C10.968 5.73901 10.657 5.73901 10.459 5.54108C10.261 5.34308 10.261 5.03192 10.459 4.83392L10.4873 4.83392L11.166 5.51276Z" fill="#000000" fill-opacity="1.000000" fill-rule="evenodd"/>
	<path id="Vector" d="M0 5.5L0 0.5Q0 0.450754 0.00960736 0.402455Q0.0192147 0.354155 0.0380602 0.308658Q0.0569057 0.263161 0.0842652 0.222215Q0.111625 0.181269 0.146447 0.146447Q0.181269 0.111625 0.222215 0.0842652Q0.263161 0.0569057 0.308658 0.0380602Q0.354155 0.0192147 0.402455 0.00960736Q0.450754 0 0.5 0L5.5 0L5.5 1L0.5 1L0.5 0.5L1 0.5L1 5.5L0 5.5ZM0.853516 0.146423L5.54102 4.83392L4.83398 5.54108L0.146484 0.853577L0.853516 0.146423ZM0.97998 5.47998L1 5.5C1 5.78003 0.780029 6 0.5 6C0.219971 6 0 5.78003 0 5.5L0.0200195 5.47998L0.97998 5.47998ZM5.47998 0.0200195L5.5 0C5.78003 0 6 0.219971 6 0.5C6 0.780029 5.78003 1 5.5 1L5.47998 0.97998L5.47998 0.0200195ZM5.5127 4.83392L5.54102 4.83392C5.73901 5.03192 5.73901 5.34308 5.54102 5.54108C5.34302 5.73901 5.03198 5.73901 4.83398 5.54108L4.83398 5.51276L5.5127 4.83392Z" fill="#000000" fill-opacity="1.000000" fill-rule="evenodd"/>
</svg>
