<svg width="12.804443" height="16.000000" viewBox="0 0 12.8044 16" fill="none" xmlns="http://www.w3.org/2000/svg" xmlns:xlink="http://www.w3.org/1999/xlink">
	<desc>
			Created with Pixso.
	</desc>
	<defs/>
	<path id="Rectangle 1 (Stroke)" d="M0.980225 0C0.987061 0 0.993652 0 1 0L10.6719 0C11.1438 0 11.5518 -6.10352e-05 11.8557 0.0431519C12.1506 0.085083 12.562 0.195068 12.7378 0.61084C12.9133 1.02661 12.7056 1.39825 12.53 1.63885C12.3491 1.88696 12.0645 2.17957 11.7356 2.51776L9.50562 4.81152C9.17578 5.15094 8.96362 5.37054 8.82788 5.55316C8.70093 5.72406 8.68628 5.80402 8.68628 5.85718C8.68628 5.91034 8.70093 5.99023 8.82788 6.16119C8.96362 6.34375 9.17578 6.56342 9.50562 6.90277L11.7356 9.19653C12.0645 9.53473 12.3491 9.82733 12.53 10.0754C12.7056 10.3161 12.9133 10.6877 12.7378 11.1035C12.562 11.5193 12.1506 11.6293 11.8557 11.6711C11.5518 11.7144 11.1436 11.7144 10.6719 11.7143L1 11.7143L1 15.5C1 15.7762 0.776123 16 0.5 16C0.223877 16 0 15.7762 0 15.5L0 1C0 0.99353 0 0.987 0 0.980347C0 0.880371 -0.000244141 0.761414 0.0136719 0.659058C0.0302734 0.535522 0.074707 0.364685 0.219727 0.219666C0.364746 0.074707 0.535645 0.0302124 0.65918 0.0136108C0.761475 -0.00012207 0.880371 -6.10352e-05 0.980225 0Z" fill="#FFFFFF" fill-opacity="1.000000" fill-rule="evenodd"/>
</svg>
