<svg width="16.000000" height="16.000000" viewBox="0 0 16 16" fill="none" xmlns="http://www.w3.org/2000/svg" xmlns:xlink="http://www.w3.org/1999/xlink">
	<desc>
			Created with Pixso.
	</desc>
	<defs/>
	<rect id="Icons / 16 / Chevron_left" width="16.000000" height="16.000000" fill="#C4C4C4" fill-opacity="0"/>
	<path id="Vector" d="M11.3535 1.35352L5.06067 7.64648Q4.91418 7.79285 4.91418 8Q4.91418 8.20715 5.06067 8.35352L11.3535 14.6465L10.6465 15.3535L4.35352 9.06067Q4.13794 8.84509 4.02405 8.56421Q3.91418 8.29321 3.91418 8Q3.91418 7.70679 4.02405 7.43579Q4.13794 7.15491 4.35352 6.93933L10.6465 0.646484L11.3535 1.35352ZM10.6465 0.674683L10.6465 0.646484C10.8445 0.448486 11.1555 0.448486 11.3535 0.646484C11.5515 0.844482 11.5515 1.15552 11.3535 1.35352L11.3253 1.35352L10.6465 0.674683ZM11.3253 14.6465L11.3535 14.6465C11.5515 14.8445 11.5515 15.1555 11.3535 15.3535C11.1555 15.5515 10.8445 15.5515 10.6465 15.3535L10.6465 15.3253L11.3253 14.6465Z" fill="#000000" fill-opacity="1.000000" fill-rule="evenodd"/>
</svg>
