<svg width="16.000000" height="16.000000" viewBox="0 0 16 16" fill="none" xmlns="http://www.w3.org/2000/svg" xmlns:xlink="http://www.w3.org/1999/xlink">
	<desc>
			Created with Pixso.
	</desc>
	<defs/>
	<rect id="Icons / 16 / Star" width="16.000000" height="16.000000" fill="#C4C4C4" fill-opacity="0"/>
	<path id="Vector" d="M6.38599 3.29529C7.07007 1.59015 7.41187 0.73761 8 0.73761C8.58813 0.73761 8.92993 1.59015 9.61401 3.29529L9.64575 3.37463C10.0322 4.33795 10.2253 4.81958 10.6191 5.11237C11.0129 5.40509 11.5298 5.45142 12.5637 5.54401L12.7505 5.56073C14.4424 5.71222 15.2883 5.78802 15.4695 6.32623C15.6504 6.86444 15.0222 7.43597 13.7656 8.5791L13.3464 8.96063C12.7102 9.53931 12.3923 9.82867 12.2441 10.2079C12.2163 10.2786 12.1934 10.3511 12.1753 10.4248C12.0779 10.8201 12.1709 11.2399 12.3572 12.0793L12.415 12.3407C12.7573 13.8835 12.9287 14.6548 12.6299 14.9876C12.5181 15.1119 12.373 15.2015 12.2117 15.2454C11.7803 15.3632 11.1677 14.864 9.94263 13.8658C9.13818 13.2103 8.73608 12.8825 8.27417 12.8088C8.09253 12.7798 7.90747 12.7798 7.72583 12.8088C7.26392 12.8825 6.86182 13.2103 6.05737 13.8658C4.83228 14.864 4.21973 15.3632 3.78833 15.2454C3.62695 15.2015 3.48193 15.1119 3.37012 14.9876C3.07129 14.6548 3.24268 13.8835 3.58496 12.3407L3.64282 12.0793C3.8291 11.2399 3.92212 10.8201 3.82471 10.4248C3.80664 10.3511 3.78369 10.2786 3.75586 10.2079C3.60767 9.82867 3.28979 9.53931 2.65356 8.96063L2.23438 8.5791C0.977783 7.43597 0.349609 6.86444 0.530518 6.32623C0.71167 5.78802 1.55762 5.71222 3.24951 5.56073L3.43628 5.54401C4.47021 5.45142 4.98706 5.40509 5.38086 5.11237C5.77466 4.81958 5.96777 4.33795 6.35425 3.37463L6.38599 3.29529Z" fill="#F1582B" fill-opacity="1.000000" fill-rule="evenodd"/>
</svg>
